<svg xmlns="http://www.w3.org/2000/svg" data-name="Layer 1" viewBox="0 0 64 64"><path fill="none" stroke="#010101" stroke-miterlimit="10" stroke-width="4" d="M58,48H6a2,2,0,0,1-2-2V17.26A1.27,1.27,0,0,1,5.26,16H58a2,2,0,0,1,2,2V46A2,2,0,0,1,58,48Z"/><line x1="22" x2="42" y1="40" y2="40" fill="none" stroke="#010101" stroke-miterlimit="10" stroke-width="4"/><line x1="10" x2="18" y1="40" y2="40" fill="none" stroke="#010101" stroke-miterlimit="10" stroke-width="4"/><line x1="10" x2="18" y1="32" y2="32" fill="none" stroke="#010101" stroke-miterlimit="10" stroke-width="4"/><line x1="46" x2="54" y1="32" y2="32" fill="none" stroke="#010101" stroke-miterlimit="10" stroke-width="4"/><line x1="46" x2="54" y1="40" y2="40" fill="none" stroke="#010101" stroke-miterlimit="10" stroke-width="4"/><line x1="22" x2="26" y1="32" y2="32" fill="none" stroke="#010101" stroke-miterlimit="10" stroke-width="4"/><line x1="30" x2="34" y1="32" y2="32" fill="none" stroke="#010101" stroke-miterlimit="10" stroke-width="4"/><line x1="38" x2="42" y1="32" y2="32" fill="none" stroke="#010101" stroke-miterlimit="10" stroke-width="4"/><line x1="50" x2="54" y1="24" y2="24" fill="none" stroke="#010101" stroke-miterlimit="10" stroke-width="4"/><line x1="42" x2="46" y1="24" y2="24" fill="none" stroke="#010101" stroke-miterlimit="10" stroke-width="4"/><line x1="34" x2="38" y1="24" y2="24" fill="none" stroke="#010101" stroke-miterlimit="10" stroke-width="4"/><line x1="26" x2="30" y1="24" y2="24" fill="none" stroke="#010101" stroke-miterlimit="10" stroke-width="4"/><line x1="18" x2="22" y1="24" y2="24" fill="none" stroke="#010101" stroke-miterlimit="10" stroke-width="4"/><line x1="10" x2="14" y1="24" y2="24" fill="none" stroke="#010101" stroke-miterlimit="10" stroke-width="4"/></svg>